<?xml version="1.0" ?><svg viewBox="0 0 32 32" xmlns="http://www.w3.org/2000/svg"><defs><style>.cls-1,.cls-3{fill:#fb4954;}.cls-2,.cls-4{fill:#fce87b;}.cls-3,.cls-4{fill-rule:evenodd;}</style></defs><g id="Fireworks"><path class="cls-1" d="M9.09,17A1.8,1.8,0,1,1,7.3,18.75,1.8,1.8,0,0,1,9.09,17"/><path class="cls-2" d="M24.7,8.27a1.8,1.8,0,1,1-1.79-1.8,1.79,1.79,0,0,1,1.79,1.8"/><path class="cls-3" d="M9.84,30V20a.75.75,0,0,0-1.5,0V30a.75.75,0,0,0,1.5,0Z"/><path class="cls-3" d="M9.84,15.75V12.49a.75.75,0,1,0-1.5,0v3.26a.75.75,0,0,0,1.5,0Z"/><path class="cls-3" d="M11.75,17.16l2.31-2.31A.75.75,0,0,0,13,13.79L10.69,16.1a.74.74,0,0,0,0,1.06A.75.75,0,0,0,11.75,17.16Z"/><path class="cls-3" d="M12.1,19.5h3.26a.75.75,0,0,0,0-1.5H12.1a.75.75,0,0,0,0,1.5Z"/><path class="cls-3" d="M10.69,21.41,13,23.72a.75.75,0,0,0,1.06-1.06l-2.31-2.31a.75.75,0,0,0-1.06,1.06Z"/><path class="cls-3" d="M6.44,20.35,4.13,22.66a.74.74,0,0,0,0,1.06.75.75,0,0,0,1.06,0L7.5,21.41a.75.75,0,0,0,0-1.06A.74.74,0,0,0,6.44,20.35Z"/><path class="cls-3" d="M6.09,18H2.82a.75.75,0,0,0,0,1.5H6.09a.75.75,0,0,0,0-1.5Z"/><path class="cls-3" d="M7.5,16.1,5.19,13.79a.75.75,0,0,0-1.06,0,.74.74,0,0,0,0,1.06l2.31,2.31a.75.75,0,0,0,1.06,0A.75.75,0,0,0,7.5,16.1Z"/><path class="cls-1" d="M12.05,13.19a.6.6,0,0,0-.33-.78.61.61,0,0,0-.79.32h0a.61.61,0,0,0,1.12.46Z"/><path class="cls-1" d="M15.12,16.91a.6.6,0,0,0-.46-1.11h0a.6.6,0,1,0,.46,1.11Z"/><path class="cls-1" d="M14.66,21.71a.6.6,0,0,0,.46-1.11h0a.6.6,0,1,0-.46,1.11Z"/><path class="cls-1" d="M10.93,24.78a.61.61,0,0,0,1.12-.47h0a.61.61,0,0,0-1.12.46Z"/><path class="cls-1" d="M6.13,24.31a.61.61,0,0,0,1.12.47h0A.59.59,0,0,0,6.92,24a.6.6,0,0,0-.79.32Z"/><path class="cls-1" d="M3.07,20.6a.59.59,0,0,0-.33.78.6.6,0,0,0,.79.33h0a.61.61,0,0,0,.33-.79.6.6,0,0,0-.79-.32Z"/><path class="cls-1" d="M3.53,15.8a.6.6,0,1,0-.46,1.11h0a.59.59,0,0,0,.78-.32.6.6,0,0,0-.32-.79Z"/><path class="cls-1" d="M7.25,12.73a.61.61,0,0,0-1.12.46h0a.61.61,0,0,0,.79.32.6.6,0,0,0,.33-.78Z"/><path class="cls-4" d="M23.66,16V9.52a.75.75,0,0,0-1.5,0V16a.75.75,0,1,0,1.5,0Zm0,6.89V20.24a.75.75,0,0,0-1.5,0v2.64a.75.75,0,0,0,1.5,0Z"/><path class="cls-4" d="M23.66,5.26V2a.75.75,0,0,0-1.5,0V5.26a.75.75,0,1,0,1.5,0Z"/><path class="cls-4" d="M25.56,6.67l2.31-2.3A.75.75,0,0,0,26.81,3.3L24.5,5.61a.75.75,0,0,0,0,1.06A.74.74,0,0,0,25.56,6.67Z"/><path class="cls-4" d="M25.91,9h3.27a.75.75,0,0,0,0-1.5H25.91a.75.75,0,0,0,0,1.5Z"/><path class="cls-4" d="M24.5,10.92l2.31,2.31a.75.75,0,0,0,1.06,0,.74.74,0,0,0,0-1.06L25.56,9.86a.75.75,0,0,0-1.06,1.06Z"/><path class="cls-4" d="M20.25,9.86l-2.31,2.31A.75.75,0,1,0,19,13.23l2.31-2.31a.74.74,0,0,0,0-1.06A.75.75,0,0,0,20.25,9.86Z"/><path class="cls-4" d="M19.9,7.52H16.63a.75.75,0,0,0,0,1.5H19.9a.75.75,0,0,0,0-1.5Z"/><path class="cls-4" d="M21.31,5.61,19,3.3a.75.75,0,0,0-1.06,0,.77.77,0,0,0,0,1.07l2.31,2.3a.75.75,0,1,0,1.06-1.06Z"/><path class="cls-2" d="M25.86,2.71a.6.6,0,1,0-1.11-.46h0a.6.6,0,0,0,1.11.46Z"/><path class="cls-2" d="M28.93,6.43a.61.61,0,0,0,.33-.79.6.6,0,0,0-.79-.33h0a.61.61,0,0,0-.32.79.59.59,0,0,0,.78.33Z"/><path class="cls-2" d="M28.47,11.22a.62.62,0,0,0,.79-.32.6.6,0,0,0-.33-.79h0a.6.6,0,0,0-.46,1.11Z"/><path class="cls-2" d="M24.75,14.29a.61.61,0,0,0,.79.32.58.58,0,0,0,.32-.78h0a.6.6,0,0,0-1.11.47Z"/><path class="cls-2" d="M20,13.83a.6.6,0,0,0,.33.78.58.58,0,0,0,.78-.32h0a.6.6,0,0,0-.32-.79.6.6,0,0,0-.79.32Z"/><path class="cls-2" d="M16.88,10.11a.62.62,0,0,0-.33.79.6.6,0,0,0,.79.32h0a.61.61,0,0,0,.33-.79.6.6,0,0,0-.79-.32Z"/><path class="cls-2" d="M17.34,5.31a.62.62,0,0,0-.79.33.6.6,0,0,0,.33.78h0a.6.6,0,0,0,.79-.32.59.59,0,0,0-.33-.79Z"/><path class="cls-2" d="M21.06,2.25A.6.6,0,1,0,20,2.71h0a.61.61,0,0,0,.79.32.59.59,0,0,0,.33-.78Z"/></g></svg>